<svg width="0" height="0" viewBox="0 0 147 131" fill="none" xmlns="http://www.w3.org/2000/svg">
<path d="M134.374 75.867L22.7559 23.038C18.0031 20.7657 15.5547 13.9491 17.283 7.70049C19.0113 1.59391 24.4842 -1.53039 29.237 0.741829L140.855 53.5709C145.608 55.8431 148.057 62.6597 146.328 68.9083C144.6 75.0149 139.127 78.1392 134.374 75.867Z" fill=""/>
<path d="M22.8998 107.962L134.23 53.9969C138.983 51.7247 144.456 54.707 146.184 60.9556C148.057 67.0622 145.608 74.0208 140.855 76.293L29.5249 130.258C24.7721 132.53 19.2992 129.406 17.5709 123.3C15.6986 117.193 18.003 110.234 22.8998 107.962Z" fill=""/>
<path d="M17.1388 82.6836C26.6044 82.6836 34.2777 75.1174 34.2777 65.784C34.2777 56.4506 26.6044 48.8844 17.1388 48.8844C7.67332 48.8844 0 56.4506 0 65.784C0 75.1174 7.67332 82.6836 17.1388 82.6836Z" fill=""/>
</svg>
